<svg width="381" height="80" viewBox="0 0 381 80" fill="none" xmlns="http://www.w3.org/2000/svg">
  <path d="M380.8 44H365V59.8H380.8V44Z" fill="#E30613"/>
  <path d="M371.201 48.6001H373.301C374.201 48.6001 374.701 49.0001 374.701 49.8001C374.701 50.7001 374.201 51.1001 373.301 51.1001H371.201V48.6001ZM369.201 56.0001H371.201V52.5001H373.201C374.201 52.5001 374.601 52.9001 374.701 53.9001C374.801 54.6001 374.801 55.5001 375.001 56.0001H377.001C376.701 55.5001 376.701 54.5001 376.601 53.9001C376.501 53.0001 376.301 52.1001 375.301 51.8001C376.301 51.4001 376.701 50.6001 376.701 49.6001C376.701 48.3001 375.701 47.1001 374.101 47.1001H369.301L369.201 56.0001Z" fill="white"/>
  <path d="M16.6008 59.7999H0.800781V0.399902H27.4008L39.4008 37.6999H39.9008L51.3008 0.399902H78.6008V59.7999H62.8008V14.1999L47.0008 59.7999H32.5008L16.6008 14.1999V59.7999Z" fill="#E30613"/>
  <path d="M103.201 41.5997C104.101 47.8997 108.901 50.3997 116.601 50.3997C120.901 50.3997 125.801 49.3997 130.501 46.8997V57.9997C125.401 59.9997 119.601 60.8997 113.801 60.8997C98.7008 60.8997 87.3008 52.0997 87.3008 36.9997C87.3008 21.8997 97.5008 13.1997 111.701 13.1997C128.601 13.1997 134.701 25.1997 134.701 38.7997V41.6997H103.201V41.5997ZM120.501 32.6997C120.501 27.3997 118.101 23.1997 111.701 23.1997C106.001 23.1997 103.301 27.4997 102.901 32.6997H120.501Z" fill="#1D1D1B"/>
  <path d="M192.301 54.4998C192.301 73.1998 183.201 79.2998 164.801 79.2998C157.301 79.2998 151.101 77.6998 147.401 76.3998L148.201 63.9998C153.001 66.3998 157.001 67.7998 163.601 67.7998C172.701 67.7998 177.601 63.4998 177.601 54.5998V52.0998H177.401C173.601 57.3998 168.401 59.8998 162.101 59.8998C149.601 59.8998 141.801 50.3998 141.801 36.9998C141.801 23.5998 148.201 13.2998 162.401 13.2998C169.101 13.2998 174.601 16.9998 177.901 22.5998H178.101V14.3998H192.401V54.4998H192.301ZM167.001 47.6998C172.601 47.6998 177.101 42.9998 177.101 35.9998C177.101 30.8998 174.101 25.1998 167.001 25.1998C161.101 25.1998 158.101 30.3998 158.101 36.5998C158.101 43.6998 162.301 47.6998 167.001 47.6998Z" fill="#1D1D1B"/>
  <path d="M251.801 54.4998C251.801 73.1998 242.701 79.2998 224.301 79.2998C216.801 79.2998 210.601 77.6998 206.901 76.3998L207.701 63.9998C212.501 66.3998 216.501 67.7998 223.101 67.7998C232.201 67.7998 237.101 63.4998 237.101 54.5998V52.0998H236.901C233.101 57.3998 227.901 59.8998 221.601 59.8998C209.101 59.8998 201.301 50.3998 201.301 36.9998C201.301 23.5998 207.701 13.2998 221.901 13.2998C228.601 13.2998 234.101 16.9998 237.401 22.5998H237.601V14.3998H251.801V54.4998ZM226.501 47.6998C232.101 47.6998 236.601 42.9998 236.601 35.9998C236.601 30.8998 233.601 25.1998 226.501 25.1998C220.601 25.1998 217.601 30.3998 217.601 36.5998C217.601 43.6998 221.801 47.6998 226.501 47.6998Z" fill="#1D1D1B"/>
  <path d="M276.8 41.5997C277.7 47.8997 282.5 50.3997 290.2 50.3997C294.5 50.3997 299.4 49.3997 304.1 46.8997V57.9997C299 59.9997 293.2 60.8997 287.4 60.8997C272.3 60.8997 260.9 52.0997 260.9 36.9997C260.9 21.8997 271.1 13.1997 285.3 13.1997C302.2 13.1997 308.3 25.1997 308.3 38.7997V41.6997H276.8V41.5997ZM294.1 32.6997C294.1 27.3997 291.6 23.1997 285.3 23.1997C279.6 23.1997 276.9 27.4997 276.5 32.6997H294.1Z" fill="#1D1D1B"/>
  <path d="M348.3 32.6001H364.8C364.8 26.6001 363 22.2001 362.9 21.9001C360.4 15.9001 355.1 13.1001 348.6 13.1001C341.4 13.1001 335.1 16.0001 332 22.6001H331.8V14.2001H317.4V59.8001H333.2V40.5001C333.2 30.7001 336.5 26.2001 342.1 26.2001C345.9 26.3001 347.8 28.8001 348.3 32.6001Z" fill="#1D1D1B"/>
</svg>
